# xmcd CD database file
#
# Track frame offsets:
#	150
#	37841
#	59386
#	65253
#	84465
#	109340
#	153291
#	161413
#	200290
#	221723
#	235495
#	259084
#
# Disc length: 3722 seconds
#
# Revision: 0
# Processed by: cddbd v1.4PL0 Copyright (c) Steve Scherf et al.
# Submitted via: CDex 1.50
#
DISCID=9e0e880c
DTITLE=kolm3 - per anno
DYEAR=2002
DGENRE=Jazz
TTITLE0=Koenigskreis
TTITLE1=Evans
TTITLE2=Katzenmusik I
TTITLE3=Elis
TTITLE4=X
TTITLE5=Nii voi naa
TTITLE6=Katzenmusik II
TTITLE7=Walzer Nr. 4
TTITLE8=Pace
TTITLE9=Intro < 143
TTITLE10=12x12 =143
TTITLE11=Popsong
EXTD=YEAR: 2002
EXTT0=
EXTT1=
EXTT2=
EXTT3=
EXTT4=
EXTT5=
EXTT6=
EXTT7=
EXTT8=
EXTT9=
EXTT10=
EXTT11=
PLAYORDER=
